<?xml version="1.0" encoding="UTF-8" standalone="no"?>
<!-- Created with Inkscape (http://www.inkscape.org/) -->

<svg
   xmlns:dc="http://purl.org/dc/elements/1.1/"
   xmlns:cc="http://creativecommons.org/ns#"
   xmlns:rdf="http://www.w3.org/1999/02/22-rdf-syntax-ns#"
   xmlns:svg="http://www.w3.org/2000/svg"
   xmlns="http://www.w3.org/2000/svg"
   xmlns:sodipodi="http://sodipodi.sourceforge.net/DTD/sodipodi-0.dtd"
   xmlns:inkscape="http://www.inkscape.org/namespaces/inkscape"
   width="600"
   height="171.06"
   viewBox="0 0 158.75 45.259624"
   version="1.1"
   id="svg8"
   inkscape:export-filename="/home/jtp/git/jtpio/p5-notebook/src/resources/p5-notebook.svg.png"
   inkscape:export-xdpi="96"
   inkscape:export-ydpi="96"
   sodipodi:docname="p5-notebook.svg"
   inkscape:version="0.92.5 (2060ec1f9f, 2020-04-08)">
  <defs
     id="defs2" />
  <sodipodi:namedview
     id="base"
     pagecolor="#fffff0"
     bordercolor="#666666"
     borderopacity="1.0"
     inkscape:pageopacity="0"
     inkscape:pageshadow="2"
     inkscape:zoom="5.6"
     inkscape:cx="159.84468"
     inkscape:cy="112.07013"
     inkscape:document-units="mm"
     inkscape:current-layer="g5132"
     showgrid="false"
     fit-margin-top="0"
     fit-margin-left="0"
     fit-margin-right="0"
     fit-margin-bottom="0"
     units="px"
     inkscape:window-width="1920"
     inkscape:window-height="1056"
     inkscape:window-x="0"
     inkscape:window-y="0"
     inkscape:window-maximized="1"
     inkscape:pagecheckerboard="true" />
  <metadata
     id="metadata5">
    <rdf:RDF>
      <cc:Work
         rdf:about="">
        <dc:format>image/svg+xml</dc:format>
        <dc:type
           rdf:resource="http://purl.org/dc/dcmitype/StillImage" />
        <dc:title></dc:title>
      </cc:Work>
    </rdf:RDF>
  </metadata>
  <g
     inkscape:label="Layer 1"
     inkscape:groupmode="layer"
     id="layer1"
     transform="translate(-43.893642,-63.459473)">
    <g
       id="g3796"
       transform="matrix(0.23688697,0,0,0.23688697,43.893642,63.519696)"
       style="fill:#ed225d;fill-opacity:1">
      <path
         id="path3783"
         d="m 58.197,108.205 c -1.354,-1.748 -3.064,-3.162 -5.135,-4.238 -2.07,-1.074 -4.496,-1.611 -7.281,-1.611 -2.627,0 -4.977,0.557 -7.045,1.672 -2.07,1.115 -3.842,2.549 -5.312,4.297 -1.475,1.752 -2.588,3.742 -3.344,5.971 -0.758,2.229 -1.133,4.459 -1.133,6.686 0,2.229 0.375,4.438 1.133,6.625 0.756,2.191 1.869,4.16 3.344,5.912 1.471,1.75 3.242,3.164 5.312,4.236 2.068,1.076 4.418,1.611 7.045,1.611 2.785,0 5.211,-0.555 7.281,-1.67 2.07,-1.115 3.781,-2.547 5.135,-4.299 1.352,-1.75 2.367,-3.74 3.045,-5.969 0.676,-2.229 1.014,-4.457 1.014,-6.686 0,-2.229 -0.338,-4.438 -1.014,-6.627 -0.678,-2.188 -1.693,-4.158 -3.045,-5.91 z"
         inkscape:connector-curvature="0"
         style="fill:#ed225d;fill-opacity:1" />
      <path
         id="path3785"
         d="M 0,0 V 191.06 H 191.063 V 0 Z m 74.852,132.621 c -1.312,3.701 -3.184,6.924 -5.611,9.67 -2.427,2.746 -5.371,4.938 -8.834,6.566 -3.463,1.631 -7.385,2.447 -11.76,2.447 -4.061,0 -7.781,-0.836 -11.164,-2.506 -3.385,-1.672 -5.99,-3.939 -7.82,-6.807 h -0.238 v 36.295 H 15.098 V 92.328 h 13.729 v 7.998 h 0.359 c 0.715,-1.113 1.65,-2.248 2.805,-3.402 1.155,-1.154 2.568,-2.188 4.24,-3.105 1.67,-0.912 3.561,-1.67 5.67,-2.268 2.107,-0.596 4.477,-0.896 7.104,-0.896 4.059,0 7.799,0.777 11.223,2.328 3.422,1.555 6.367,3.684 8.836,6.389 2.465,2.707 4.375,5.891 5.73,9.551 1.352,3.662 2.029,7.602 2.029,11.82 0,4.218 -0.657,8.176 -1.971,11.878 z m 61.57,1.91 c -1.633,3.701 -3.842,6.826 -6.627,9.371 -2.787,2.549 -6.051,4.5 -9.791,5.852 -3.74,1.352 -7.721,2.029 -11.938,2.029 -7.086,0 -13.057,-1.654 -17.91,-4.955 -3.34,-2.271 -6.043,-5.133 -8.139,-8.553 l 10.367,-9.715 0.16,-0.059 c 1.193,3.344 3.182,6.029 5.969,8.059 2.785,2.029 6.09,3.045 9.91,3.045 2.148,0 4.178,-0.357 6.088,-1.076 1.912,-0.715 3.582,-1.748 5.016,-3.104 1.432,-1.352 2.566,-3.045 3.402,-5.072 0.836,-2.029 1.254,-4.318 1.254,-6.865 0,-3.264 -0.559,-5.971 -1.672,-8.119 -1.115,-2.148 -2.566,-3.881 -4.357,-5.193 -1.791,-1.312 -3.803,-2.229 -6.029,-2.746 -2.229,-0.518 -4.498,-0.775 -6.805,-0.775 -1.594,0 -3.283,0.119 -5.074,0.357 -1.791,0.24 -3.543,0.578 -5.254,1.016 -1.713,0.438 -3.383,0.936 -5.014,1.49 -1.633,0.559 -3.086,1.156 -4.357,1.791 l 1.432,-46.201 h 48.113 V 78 h -34.504 l -0.834,18.268 c 1.352,-0.398 2.963,-0.676 4.834,-0.838 1.871,-0.156 3.562,-0.238 5.074,-0.238 4.139,0 7.979,0.598 11.521,1.791 3.541,1.193 6.627,2.926 9.252,5.193 2.629,2.27 4.676,5.057 6.148,8.357 1.473,3.305 2.209,7.104 2.209,11.402 10e-4,4.697 -0.815,8.895 -2.444,12.596 z m 37.388,-47.455 -5.243,3.802 -5.449,-7.211 -5.312,7.026 -5.107,-3.89 5.171,-7.08 -8.392,-3.027 1.981,-6.095 8.419,2.714 v -8.708 h 6.754 v 8.721 l 8.357,-2.522 1.979,6.09 -8.333,2.843 z"
         inkscape:connector-curvature="0"
         style="fill:#ed225d;fill-opacity:1" />
    </g>
    <g
       id="g5132">
      <g
         transform="matrix(0.75757575,0,0,0.75509849,25.51884,-30.694974)"
         id="g4896">
        <path
           style="fill:#ed225d;fill-opacity:1;stroke-width:0.7529878"
           d="M 138.20508,0 V 170 H 602.49219 V 0 Z m 248.32617,67.876953 v 26.566406 c 1.09134,-0.698264 2.72943,-1.429663 4.91211,-2.191406 2.24687,-0.761743 4.81429,-1.142578 7.70312,-1.142578 3.595,0 6.77276,0.634726 9.53321,1.904297 2.82464,1.269571 5.20106,3.048756 7.12695,5.333984 1.92589,2.285224 3.36909,5.013574 4.33203,8.187504 1.02714,3.17392 1.54102,6.66589 1.54102,10.47461 0,3.99914 -0.61035,7.61806 -1.83008,10.85546 -1.15554,3.17393 -2.82318,5.87005 -5.00586,8.0918 -2.18268,2.22175 -4.81506,3.93649 -7.89648,5.14258 -3.08143,1.20609 -6.54861,1.80859 -10.40039,1.80859 -4.17277,0 -7.8644,-0.28416 -11.07422,-0.85547 -3.20982,-0.5713 -5.8422,-1.14353 -7.89649,-1.71484 V 69.400391 Z m 170.3457,0 v 45.132817 l 5.10352,-5.04688 c 1.86169,-1.84088 3.69078,-3.71283 5.48828,-5.61719 1.7975,-1.90435 3.49861,-3.71381 5.10352,-5.427731 1.60491,-1.7774 2.98509,-3.332966 4.14062,-4.666016 h 10.49609 c -1.47651,1.586964 -3.08115,3.333925 -4.81445,5.238281 -1.7333,1.904357 -3.53088,3.840756 -5.39258,5.808596 -1.86169,1.90435 -3.75575,3.8388 -5.68164,5.80664 -1.86169,1.90436 -3.62581,3.71381 -5.29492,5.42773 1.92589,1.46001 3.94793,3.26947 6.06641,5.42774 2.18267,2.15827 4.30118,4.50773 6.35547,7.04687 2.11848,2.47567 4.109,5.01457 5.9707,7.61719 1.86169,2.53914 3.43287,4.91888 4.7168,7.14062 h -10.4961 c -1.34812,-2.22174 -2.9193,-4.47453 -4.71679,-6.75976 -1.73331,-2.34871 -3.56435,-4.57122 -5.49024,-6.66602 -1.92589,-2.15827 -3.88296,-4.12494 -5.87305,-5.90234 -1.99008,-1.7774 -3.88414,-3.27047 -5.68164,-4.47656 v 23.80468 h -8.95507 V 69.400391 Z m -262.49804,9.044922 v 15.330078 h 18.96875 v 7.427735 h -18.96875 v 22.851562 c 0,2.47566 0.19294,4.53901 0.57812,6.18945 0.38518,1.58697 0.96207,2.85642 1.73242,3.8086 0.77036,0.8887 1.73314,1.52342 2.88867,1.90429 1.15554,0.38088 2.50421,0.57227 4.04493,0.57227 2.69625,0 4.84626,-0.28612 6.45117,-0.85742 1.66911,-0.63479 2.82483,-1.07812 3.4668,-1.33203 l 1.73437,7.33007 c -0.89875,0.44435 -2.47188,0.98436 -4.71875,1.61914 -2.24687,0.69827 -4.81624,1.04883 -7.70508,1.04883 -3.40241,0 -6.22578,-0.41306 -8.47265,-1.23828 -2.18268,-0.8887 -3.94875,-2.19037 -5.29688,-3.90429 -1.34812,-1.71393 -2.3109,-3.8095 -2.88867,-6.28516 -0.51357,-2.53914 -0.76953,-5.45888 -0.76953,-8.75977 V 78.447266 Z m -44.48829,14.09375 c 3.40241,0 6.54867,0.634726 9.4375,1.904297 2.88884,1.206092 5.35978,2.9511 7.41407,5.236328 2.11848,2.28523 3.75462,5.0458 4.91015,8.2832 1.15554,3.17393 1.73438,6.69812 1.73438,10.57032 0,3.93567 -0.57884,7.49013 -1.73438,10.66406 -1.15553,3.17393 -2.79167,5.90422 -4.91015,8.18945 -2.05429,2.28523 -4.52523,4.06246 -7.41407,5.33203 -2.88883,1.2061 -6.03509,1.8086 -9.4375,1.8086 -3.4024,0 -6.54866,-0.6025 -9.4375,-1.8086 -2.88883,-1.26957 -5.39128,-3.0468 -7.50976,-5.33203 -2.05429,-2.28523 -3.65892,-5.01552 -4.81445,-8.18945 -1.15554,-3.17393 -1.73438,-6.72839 -1.73438,-10.66406 0,-3.8722 0.57884,-7.39639 1.73438,-10.57032 1.15553,-3.2374 2.76016,-5.99797 4.81445,-8.2832 2.11848,-2.285228 4.62093,-4.030236 7.50976,-5.236328 2.88884,-1.269571 6.0351,-1.904297 9.4375,-1.904297 z m 93.88672,0 c 6.74063,0 11.90891,2.093618 15.50391,6.283203 3.595,4.126102 5.39258,10.443092 5.39258,18.949222 v 1.52343 c 0,0.57131 -0.0315,1.11132 -0.0957,1.61914 h -34.28124 c 0.38517,5.14177 1.89333,9.04484 4.52539,11.71094 2.63205,2.6661 6.74108,4 12.32617,4 3.14562,0 5.778,-0.25389 7.89648,-0.76172 2.18268,-0.5713 3.81882,-1.11131 4.91016,-1.61914 l 1.25195,7.42578 c -1.09134,0.57131 -3.0169,1.17577 -5.77734,1.81055 -2.69625,0.63479 -5.77754,0.95117 -9.24414,0.95117 -4.36536,0 -8.15346,-0.63472 -11.36328,-1.90429 -3.14563,-1.33305 -5.7465,-3.14251 -7.80079,-5.42774 -2.05428,-2.28523 -3.59395,-4.98135 -4.62109,-8.09179 -0.96295,-3.17393 -1.44531,-6.63368 -1.44531,-10.37891 0,-4.38002 0.64185,-8.19033 1.92578,-11.42774 1.28393,-3.30088 2.98503,-6.029225 5.10352,-8.187496 2.11848,-2.158271 4.55791,-3.778286 7.31835,-4.857422 2.76045,-1.079135 5.58578,-1.617187 8.47461,-1.617187 z m 111.22071,0 c 3.40241,0 6.54671,0.634726 9.43554,1.904297 2.88884,1.206092 5.36173,2.9511 7.41602,5.236328 2.11848,2.28523 3.75462,5.0458 4.91016,8.2832 1.15553,3.17393 1.73437,6.69812 1.73437,10.57032 0,3.93567 -0.57884,7.49013 -1.73437,10.66406 -1.15554,3.17393 -2.79168,5.90422 -4.91016,8.18945 -2.05429,2.28523 -4.52718,4.06246 -7.41602,5.33203 -2.88883,1.2061 -6.03313,1.8086 -9.43554,1.8086 -3.40241,0 -6.54867,-0.6025 -9.4375,-1.8086 -2.88884,-1.26957 -5.39324,-3.0468 -7.51172,-5.33203 -2.05429,-2.28523 -3.65892,-5.01552 -4.81445,-8.18945 -1.15554,-3.17393 -1.73243,-6.72839 -1.73243,-10.66406 0,-3.8722 0.57689,-7.39639 1.73243,-10.57032 1.15553,-3.2374 2.76016,-5.99797 4.81445,-8.2832 2.11848,-2.285228 4.62288,-4.030236 7.51172,-5.236328 2.88883,-1.269571 6.03509,-1.904297 9.4375,-1.904297 z m 56.8125,0 c 3.40241,0 6.54866,0.634726 9.4375,1.904297 2.88883,1.206092 5.35977,2.9511 7.41406,5.236328 2.11848,2.28523 3.75657,5.0458 4.91211,8.2832 1.15553,3.17393 1.73242,6.69812 1.73242,10.57032 0,3.93567 -0.57689,7.49013 -1.73242,10.66406 -1.15554,3.17393 -2.79363,5.90422 -4.91211,8.18945 -2.05429,2.28523 -4.52523,4.06246 -7.41406,5.33203 -2.88884,1.2061 -6.03509,1.8086 -9.4375,1.8086 -3.40241,0 -6.54671,-0.6025 -9.43555,-1.8086 -2.88884,-1.26957 -5.39324,-3.0468 -7.51172,-5.33203 -2.05428,-2.28523 -3.65892,-5.01552 -4.81445,-8.18945 -1.15554,-3.17393 -1.73438,-6.72839 -1.73438,-10.66406 0,-3.8722 0.57884,-7.39639 1.73438,-10.57032 1.15553,-3.2374 2.76017,-5.99797 4.81445,-8.2832 2.11848,-2.285228 4.62288,-4.030236 7.51172,-5.236328 2.88884,-1.269571 6.03314,-1.904297 9.43555,-1.904297 z m -317.96289,0.189453 c 3.98017,0 7.28591,0.57223 9.91796,1.714844 2.63206,1.079135 4.71906,2.634702 6.25977,4.666016 1.60491,1.967835 2.72718,4.347572 3.36914,7.140622 0.64197,2.79306 0.96289,5.87197 0.96289,9.23633 v 27.80273 h -8.95508 v -25.89843 c 0,-3.04697 -0.22445,-5.65033 -0.67382,-7.8086 -0.38518,-2.15827 -1.05854,-3.90327 -2.02149,-5.23632 -0.96294,-1.33305 -2.24665,-2.28612 -3.85156,-2.857426 -1.60491,-0.634786 -3.59544,-0.951172 -5.9707,-0.951172 -0.96295,0 -1.95919,0.03222 -2.98633,0.0957 -1.02714,0.06348 -2.02143,0.158199 -2.98438,0.285156 -0.89875,0.06348 -1.73355,0.158199 -2.5039,0.285157 -0.70616,0.126957 -1.22004,0.221677 -1.54102,0.285156 v 41.800779 h -8.95508 V 93.681641 c 2.05429,-0.507829 4.78314,-1.047834 8.18555,-1.619141 3.40241,-0.571307 7.31849,-0.857422 11.74805,-0.857422 z m 149.83398,7.332031 c -2.05428,0 -3.88337,0.41306 -5.48828,1.238282 -1.54071,0.761739 -2.85788,1.777299 -3.94922,3.046879 -1.09134,1.26957 -1.95764,2.72846 -2.59961,4.3789 -0.57777,1.65044 -0.96366,3.33296 -1.15625,5.04688 h 24.84375 c 0.0642,-3.99915 -0.9616,-7.2675 -3.08008,-9.80664 -2.05428,-2.602625 -4.91111,-3.904301 -8.57031,-3.904301 z m -93.79102,0.285157 c -4.36535,0 -7.83253,1.650284 -10.40039,4.951174 -2.50366,3.2374 -3.75585,7.65021 -3.75585,13.23633 0,5.58611 1.25219,10.02919 3.75585,13.33007 2.56786,3.23741 6.03504,4.85547 10.40039,4.85547 4.36536,0 7.79908,-1.61806 10.30274,-4.85547 2.56786,-3.30088 3.85352,-7.74396 3.85352,-13.33007 0,-5.58612 -1.28566,-9.99893 -3.85352,-13.23633 -2.50366,-3.30089 -5.93738,-4.951174 -10.30274,-4.951174 z m 205.10743,0 c -4.36536,0 -7.83254,1.650284 -10.40039,4.951174 -2.50366,3.2374 -3.75586,7.65021 -3.75586,13.23633 0,5.58611 1.2522,10.02919 3.75586,13.33007 2.56785,3.23741 6.03503,4.85547 10.40039,4.85547 4.36535,0 7.79907,-1.61806 10.30273,-4.85547 2.56786,-3.30088 3.85156,-7.74396 3.85156,-13.33007 0,-5.58612 -1.2837,-9.99893 -3.85156,-13.23633 -2.50366,-3.30089 -5.93738,-4.951174 -10.30273,-4.951174 z m 56.8125,0 c -4.36536,0 -7.83058,1.650284 -10.39844,4.951174 -2.50366,3.2374 -3.75586,7.65021 -3.75586,13.23633 0,5.58611 1.2522,10.02919 3.75586,13.33007 2.56786,3.23741 6.03308,4.85547 10.39844,4.85547 4.36535,0 7.80102,-1.61806 10.30468,-4.85547 2.56786,-3.30088 3.85157,-7.74396 3.85157,-13.33007 0,-5.58612 -1.28371,-9.99893 -3.85157,-13.23633 -2.50366,-3.30089 -5.93933,-4.951174 -10.30468,-4.951174 z m -113.81836,0.0957 c -2.43947,0 -4.68791,0.41306 -6.74219,1.238284 -2.05428,0.82522 -3.62741,1.68161 -4.71875,2.57031 v 31.32617 c 0.89875,0.25392 2.15095,0.50781 3.75586,0.76172 1.66911,0.19044 3.7246,0.28711 6.16406,0.28711 4.81473,0 8.66585,-1.55556 11.55469,-4.66601 2.88884,-3.17393 4.33398,-7.64924 4.33398,-13.42578 0,-2.53915 -0.25791,-4.91888 -0.77148,-7.14063 -0.51357,-2.22175 -1.34837,-4.12788 -2.50391,-5.71484 -1.15553,-1.65045 -2.66369,-2.9199 -4.52539,-3.8086 -1.7975,-0.952178 -3.97902,-1.427734 -6.54687,-1.427734 z"
           transform="matrix(0.34925,0,0,0.35351891,24.254739,124.69161)"
           id="rect4893"
           inkscape:connector-curvature="0" />
      </g>
    </g>
  </g>
</svg>
