<?xml version="1.0" encoding="UTF-8" standalone="no"?>
<!-- Created with Inkscape (http://www.inkscape.org/) -->

<svg
   xmlns:dc="http://purl.org/dc/elements/1.1/"
   xmlns:cc="http://creativecommons.org/ns#"
   xmlns:rdf="http://www.w3.org/1999/02/22-rdf-syntax-ns#"
   xmlns:svg="http://www.w3.org/2000/svg"
   xmlns="http://www.w3.org/2000/svg"
   xmlns:sodipodi="http://sodipodi.sourceforge.net/DTD/sodipodi-0.dtd"
   xmlns:inkscape="http://www.inkscape.org/namespaces/inkscape"
   width="566.92914"
   height="171.06"
   viewBox="0 0 150 45.259624"
   version="1.1"
   id="svg8"
   inkscape:export-filename="/home/jtp/git/jtpio/p5-notebook/src/resources/p5-notebook.svg.png"
   inkscape:export-xdpi="96"
   inkscape:export-ydpi="96"
   inkscape:version="0.92.5 (2060ec1f9f, 2020-04-08)"
   sodipodi:docname="p5-notebook.svg">
  <defs
     id="defs2" />
  <sodipodi:namedview
     id="base"
     pagecolor="#fffff0"
     bordercolor="#666666"
     borderopacity="1.0"
     inkscape:pageopacity="0"
     inkscape:pageshadow="2"
     inkscape:zoom="0.7"
     inkscape:cx="260.84362"
     inkscape:cy="-160.83715"
     inkscape:document-units="mm"
     inkscape:current-layer="text4086"
     showgrid="false"
     fit-margin-top="0"
     fit-margin-left="0"
     fit-margin-right="0"
     fit-margin-bottom="0"
     units="px"
     inkscape:window-width="1920"
     inkscape:window-height="1056"
     inkscape:window-x="0"
     inkscape:window-y="0"
     inkscape:window-maximized="1" />
  <metadata
     id="metadata5">
    <rdf:RDF>
      <cc:Work
         rdf:about="">
        <dc:format>image/svg+xml</dc:format>
        <dc:type
           rdf:resource="http://purl.org/dc/dcmitype/StillImage" />
        <dc:title></dc:title>
      </cc:Work>
    </rdf:RDF>
  </metadata>
  <g
     inkscape:label="Layer 1"
     inkscape:groupmode="layer"
     id="layer1"
     transform="translate(-43.893642,-63.459473)">
    <g
       id="g3796"
       transform="matrix(0.23688697,0,0,0.23688697,43.893642,63.459473)"
       style="fill:#ed225d;fill-opacity:1">
      <path
         id="path3783"
         d="m 58.197,108.205 c -1.354,-1.748 -3.064,-3.162 -5.135,-4.238 -2.07,-1.074 -4.496,-1.611 -7.281,-1.611 -2.627,0 -4.977,0.557 -7.045,1.672 -2.07,1.115 -3.842,2.549 -5.312,4.297 -1.475,1.752 -2.588,3.742 -3.344,5.971 -0.758,2.229 -1.133,4.459 -1.133,6.686 0,2.229 0.375,4.438 1.133,6.625 0.756,2.191 1.869,4.16 3.344,5.912 1.471,1.75 3.242,3.164 5.312,4.236 2.068,1.076 4.418,1.611 7.045,1.611 2.785,0 5.211,-0.555 7.281,-1.67 2.07,-1.115 3.781,-2.547 5.135,-4.299 1.352,-1.75 2.367,-3.74 3.045,-5.969 0.676,-2.229 1.014,-4.457 1.014,-6.686 0,-2.229 -0.338,-4.438 -1.014,-6.627 -0.678,-2.188 -1.693,-4.158 -3.045,-5.91 z"
         inkscape:connector-curvature="0"
         style="fill:#ed225d;fill-opacity:1" />
      <path
         id="path3785"
         d="M 0,0 V 191.06 H 191.063 V 0 Z m 74.852,132.621 c -1.312,3.701 -3.184,6.924 -5.611,9.67 -2.427,2.746 -5.371,4.938 -8.834,6.566 -3.463,1.631 -7.385,2.447 -11.76,2.447 -4.061,0 -7.781,-0.836 -11.164,-2.506 -3.385,-1.672 -5.99,-3.939 -7.82,-6.807 h -0.238 v 36.295 H 15.098 V 92.328 h 13.729 v 7.998 h 0.359 c 0.715,-1.113 1.65,-2.248 2.805,-3.402 1.155,-1.154 2.568,-2.188 4.24,-3.105 1.67,-0.912 3.561,-1.67 5.67,-2.268 2.107,-0.596 4.477,-0.896 7.104,-0.896 4.059,0 7.799,0.777 11.223,2.328 3.422,1.555 6.367,3.684 8.836,6.389 2.465,2.707 4.375,5.891 5.73,9.551 1.352,3.662 2.029,7.602 2.029,11.82 0,4.218 -0.657,8.176 -1.971,11.878 z m 61.57,1.91 c -1.633,3.701 -3.842,6.826 -6.627,9.371 -2.787,2.549 -6.051,4.5 -9.791,5.852 -3.74,1.352 -7.721,2.029 -11.938,2.029 -7.086,0 -13.057,-1.654 -17.91,-4.955 -3.34,-2.271 -6.043,-5.133 -8.139,-8.553 l 10.367,-9.715 0.16,-0.059 c 1.193,3.344 3.182,6.029 5.969,8.059 2.785,2.029 6.09,3.045 9.91,3.045 2.148,0 4.178,-0.357 6.088,-1.076 1.912,-0.715 3.582,-1.748 5.016,-3.104 1.432,-1.352 2.566,-3.045 3.402,-5.072 0.836,-2.029 1.254,-4.318 1.254,-6.865 0,-3.264 -0.559,-5.971 -1.672,-8.119 -1.115,-2.148 -2.566,-3.881 -4.357,-5.193 -1.791,-1.312 -3.803,-2.229 -6.029,-2.746 -2.229,-0.518 -4.498,-0.775 -6.805,-0.775 -1.594,0 -3.283,0.119 -5.074,0.357 -1.791,0.24 -3.543,0.578 -5.254,1.016 -1.713,0.438 -3.383,0.936 -5.014,1.49 -1.633,0.559 -3.086,1.156 -4.357,1.791 l 1.432,-46.201 h 48.113 V 78 h -34.504 l -0.834,18.268 c 1.352,-0.398 2.963,-0.676 4.834,-0.838 1.871,-0.156 3.562,-0.238 5.074,-0.238 4.139,0 7.979,0.598 11.521,1.791 3.541,1.193 6.627,2.926 9.252,5.193 2.629,2.27 4.676,5.057 6.148,8.357 1.473,3.305 2.209,7.104 2.209,11.402 10e-4,4.697 -0.815,8.895 -2.444,12.596 z m 37.388,-47.455 -5.243,3.802 -5.449,-7.211 -5.312,7.026 -5.107,-3.89 5.171,-7.08 -8.392,-3.027 1.981,-6.095 8.419,2.714 v -8.708 h 6.754 v 8.721 l 8.357,-2.522 1.979,6.09 -8.333,2.843 z"
         inkscape:connector-curvature="0"
         style="fill:#ed225d;fill-opacity:1" />
    </g>
    <g
       id="g4993">
      <g
         clip-path="none"
         transform="matrix(0.64568763,0,0,0.74842767,42.326757,-29.86318)"
         id="g4896" />
      <g
         aria-label="notebook"
         transform="scale(1.0056383,0.99439331)"
         clip-path="none"
         style="font-style:normal;font-weight:normal;font-size:24.28911209px;line-height:1.25;font-family:sans-serif;letter-spacing:0px;word-spacing:0px;fill:#83ffff;fill-opacity:0.94117647;fill-rule:evenodd;stroke:none;stroke-width:0.6072278;stroke-opacity:1"
         id="text4086">
        <path
           id="path5027"
           style="font-style:normal;font-variant:normal;font-weight:normal;font-stretch:normal;font-family:ubuntu;-inkscape-font-specification:ubuntu;fill:#ed225d;fill-opacity:1;fill-rule:evenodd;stroke:none;stroke-width:0.6072278;stroke-opacity:1"
           d="m 186.80595,92.63904 q 0.72868,0.558649 1.53022,1.384479 0.82583,0.82583 1.60308,1.797395 0.80154,0.947275 1.50592,1.943128 0.70439,0.971565 1.19017,1.821684 h -2.64751 q -0.51007,-0.850119 -1.19017,-1.724527 -0.65581,-0.898697 -1.38448,-1.700238 -0.72867,-0.82583 -1.48164,-1.505925 -0.75296,-0.680095 -1.43305,-1.141588 v 6.072278 H 182.2396 V 81.126001 l 2.25889,-0.388626 v 11.513039 q 0.58294,-0.582939 1.28732,-1.287323 0.70438,-0.704384 1.38448,-1.433058 0.68009,-0.728673 1.28732,-1.384479 0.60723,-0.680095 1.04443,-1.190166 h 2.64752 q -0.55865,0.607227 -1.21446,1.335901 -0.6558,0.728673 -1.36019,1.481636 -0.70438,0.728673 -1.43306,1.481635 -0.70438,0.728674 -1.3359,1.38448 z m -7.74818,0.631517 q 0,1.505925 -0.43721,2.72038 -0.4372,1.214456 -1.23874,2.088864 -0.77725,0.874408 -1.87026,1.36019 -1.09301,0.461493 -2.38034,0.461493 -1.28732,0 -2.38033,-0.461493 -1.09301,-0.485782 -1.89455,-1.36019 -0.77725,-0.874408 -1.21446,-2.088864 -0.4372,-1.214455 -0.4372,-2.72038 0,-1.481636 0.4372,-2.696092 0.43721,-1.238744 1.21446,-2.113152 0.80154,-0.874408 1.89455,-1.335902 1.09301,-0.485782 2.38033,-0.485782 1.28733,0 2.38034,0.485782 1.09301,0.461494 1.87026,1.335902 0.80154,0.874408 1.23874,2.113152 0.43721,1.214456 0.43721,2.696092 z m -2.35605,0 q 0,-2.137442 -0.97156,-3.376187 -0.94728,-1.263034 -2.59894,-1.263034 -1.65166,0 -2.62322,1.263034 -0.94728,1.238745 -0.94728,3.376187 0,2.137442 0.94728,3.400475 0.97156,1.238745 2.62322,1.238745 1.65166,0 2.59894,-1.238745 0.97156,-1.263033 0.97156,-3.400475 z m -11.97448,0 q 0,1.505925 -0.43721,2.72038 -0.4372,1.214456 -1.23874,2.088864 -0.77725,0.874408 -1.87026,1.36019 -1.09301,0.461493 -2.38034,0.461493 -1.28732,0 -2.38033,-0.461493 -1.09301,-0.485782 -1.89455,-1.36019 -0.77725,-0.874408 -1.21445,-2.088864 -0.43721,-1.214455 -0.43721,-2.72038 0,-1.481636 0.43721,-2.696092 0.4372,-1.238744 1.21445,-2.113152 0.80154,-0.874408 1.89455,-1.335902 1.09301,-0.485782 2.38033,-0.485782 1.28733,0 2.38034,0.485782 1.09301,0.461494 1.87026,1.335902 0.80154,0.874408 1.23874,2.113152 0.43721,1.214456 0.43721,2.696092 z m -2.35605,0 q 0,-2.137442 -0.97156,-3.376187 -0.94728,-1.263034 -2.59894,-1.263034 -1.65166,0 -2.62322,1.263034 -0.94727,1.238745 -0.94727,3.376187 0,2.137442 0.94727,3.400475 0.97156,1.238745 2.62322,1.238745 1.65166,0 2.59894,-1.238745 0.97156,-1.263033 0.97156,-3.400475 z m -20.84003,-5.75652 q 0.41292,-0.26718 1.23875,-0.558649 0.85012,-0.29147 1.94313,-0.29147 1.36019,0 2.40462,0.485782 1.06872,0.485783 1.79739,1.360191 0.72868,0.874408 1.09301,2.088863 0.38863,1.214456 0.38863,2.671803 0,1.530214 -0.46149,2.768959 -0.43721,1.214455 -1.26304,2.064574 -0.82583,0.850119 -1.9917,1.311612 -1.16588,0.461493 -2.62323,0.461493 -1.57879,0 -2.79325,-0.218602 -1.21445,-0.218602 -1.9917,-0.437204 V 81.126001 l 2.25888,-0.388626 z m 0,10.104271 q 0.34005,0.09716 0.94728,0.194313 0.63152,0.07287 1.5545,0.07287 1.82169,0 2.9147,-1.190166 1.09301,-1.214456 1.09301,-3.424765 0,-0.971565 -0.19432,-1.821684 -0.19431,-0.850119 -0.63151,-1.457346 -0.43721,-0.631517 -1.14159,-0.971565 -0.6801,-0.364337 -1.65166,-0.364337 -0.92299,0 -1.70024,0.315759 -0.77725,0.315758 -1.19017,0.655806 z m -16.54084,-4.323462 q 0,-1.675949 0.48579,-2.914694 0.48578,-1.263033 1.28732,-2.088863 0.80154,-0.82583 1.84597,-1.238745 1.04443,-0.412915 2.13744,-0.412915 2.55036,0 3.91055,1.603082 1.36019,1.578792 1.36019,4.833533 0,0.145735 0,0.388626 0,0.218602 -0.0243,0.412915 h -8.64692 q 0.14573,1.967418 1.14159,2.98756 0.99585,1.020143 3.109,1.020143 1.19017,0 1.99171,-0.194313 0.82583,-0.218602 1.23874,-0.412915 l 0.31576,1.894551 q -0.41291,0.218602 -1.45734,0.461493 -1.02015,0.242891 -2.33176,0.242891 -1.65166,0 -2.86611,-0.485782 -1.19017,-0.510071 -1.96742,-1.384479 -0.77725,-0.874408 -1.16588,-2.064575 -0.36434,-1.214456 -0.36434,-2.647513 z m 8.67122,-1.238745 q 0.0243,-1.530214 -0.77725,-2.501778 -0.77726,-0.995854 -2.16174,-0.995854 -0.77725,0 -1.38447,0.315758 -0.58294,0.29147 -0.99586,0.777252 -0.41291,0.485782 -0.6558,1.117299 -0.21861,0.631517 -0.29147,1.287323 z m -15.37497,-5.100713 h 4.78495 v 1.89455 h -4.78495 v 5.829387 q 0,0.947276 0.14573,1.578793 0.14574,0.607227 0.43721,0.971564 0.29147,0.340048 0.72867,0.485782 0.4372,0.145735 1.02014,0.145735 1.02014,0 1.62737,-0.218602 0.63152,-0.242891 0.87441,-0.340048 l 0.4372,1.870262 q -0.34004,0.170024 -1.19016,0.412915 -0.85012,0.26718 -1.94313,0.26718 -1.28732,0 -2.13744,-0.315758 -0.82583,-0.340048 -1.3359,-0.995854 -0.51008,-0.655806 -0.72868,-1.603081 -0.19431,-0.971565 -0.19431,-2.234599 V 83.433466 l 2.25889,-0.388625 z m -5.29499,6.315169 q 0,1.505925 -0.4372,2.72038 -0.4372,1.214456 -1.23874,2.088864 -0.77726,0.874408 -1.87027,1.36019 -1.09301,0.461493 -2.38033,0.461493 -1.28732,0 -2.38033,-0.461493 -1.09301,-0.485782 -1.89455,-1.36019 -0.77725,-0.874408 -1.21446,-2.088864 -0.4372,-1.214455 -0.4372,-2.72038 0,-1.481636 0.4372,-2.696092 0.43721,-1.238744 1.21446,-2.113152 0.80154,-0.874408 1.89455,-1.335902 1.09301,-0.485782 2.38033,-0.485782 1.28732,0 2.38033,0.485782 1.09301,0.461494 1.87027,1.335902 0.80154,0.874408 1.23874,2.113152 0.4372,1.214456 0.4372,2.696092 z m -2.35604,0 q 0,-2.137442 -0.97156,-3.376187 -0.94728,-1.263034 -2.59894,-1.263034 -1.65166,0 -2.62322,1.263034 -0.94728,1.238745 -0.94728,3.376187 0,2.137442 0.94728,3.400475 0.97156,1.238745 2.62322,1.238745 1.65166,0 2.59894,-1.238745 0.97156,-1.263033 0.97156,-3.400475 z M 87.900946,87.319724 q 0.777252,-0.194313 2.064575,-0.412915 1.287323,-0.218602 2.963271,-0.218602 1.505925,0 2.501779,0.437204 0.995853,0.412915 1.578792,1.190167 0.607228,0.752962 0.850119,1.821683 0.242891,1.068721 0.242891,2.356044 v 7.092421 h -2.258887 v -6.606639 q 0,-1.165877 -0.170024,-1.991707 -0.145735,-0.82583 -0.510071,-1.335901 -0.364337,-0.510071 -0.971565,-0.728673 -0.607228,-0.242891 -1.505925,-0.242891 -0.364337,0 -0.752962,0.02429 -0.388626,0.02429 -0.752963,0.07287 -0.340047,0.02429 -0.631517,0.07287 -0.26718,0.04858 -0.388626,0.07287 v 10.66292 H 87.900946 Z M 88.654119,63.817277 H 192.7665 V 109.05005 H 88.654119 Z"
           inkscape:connector-curvature="0" />
      </g>
    </g>
  </g>
</svg>
