<?xml version="1.0" encoding="UTF-8" standalone="no"?>
<svg
   xmlns:dc="http://purl.org/dc/elements/1.1/"
   xmlns:cc="http://creativecommons.org/ns#"
   xmlns:rdf="http://www.w3.org/1999/02/22-rdf-syntax-ns#"
   xmlns:svg="http://www.w3.org/2000/svg"
   xmlns="http://www.w3.org/2000/svg"
   xmlns:xlink="http://www.w3.org/1999/xlink"
   xmlns:sodipodi="http://sodipodi.sourceforge.net/DTD/sodipodi-0.dtd"
   xmlns:inkscape="http://www.inkscape.org/namespaces/inkscape"
   version="1.1"
   id="Layer_1"
   x="0px"
   y="0px"
   width="171.063px"
   height="171.06px"
   viewBox="0 0 191.063 191.06"
   enable-background="new 0 0 191.063 191.06"
   xml:space="preserve"
   sodipodi:docname="pyp5js.svg"
   inkscape:version="1.0.1 (1.0.1+r73)"><metadata
   id="metadata11"><rdf:RDF><cc:Work
       rdf:about=""><dc:format>image/svg+xml</dc:format><dc:type
         rdf:resource="http://purl.org/dc/dcmitype/StillImage" /></cc:Work></rdf:RDF></metadata><defs
   id="defs9"><linearGradient
     id="linearGradient11301"
     inkscape:collect="always"><stop
       id="stop11303"
       offset="0"
       style="stop-color:#ffe052;stop-opacity:1" /><stop
       id="stop11305"
       offset="1"
       style="stop-color:#ffc331;stop-opacity:1" /></linearGradient><linearGradient
     gradientUnits="userSpaceOnUse"
     y2="168.1012"
     x2="147.77737"
     y1="111.92053"
     x1="89.136749"
     id="linearGradient11307"
     xlink:href="#linearGradient11301"
     inkscape:collect="always" /><linearGradient
     id="linearGradient9515"
     inkscape:collect="always"><stop
       id="stop9517"
       offset="0"
       style="stop-color:#387eb8;stop-opacity:1" /><stop
       id="stop9519"
       offset="1"
       style="stop-color:#366994;stop-opacity:1" /></linearGradient><linearGradient
     gradientUnits="userSpaceOnUse"
     y2="131.85291"
     x2="110.14919"
     y1="77.070274"
     x1="55.549179"
     id="linearGradient9521"
     xlink:href="#linearGradient9515"
     inkscape:collect="always" /></defs><sodipodi:namedview
   pagecolor="#ffffff"
   bordercolor="#666666"
   borderopacity="1"
   objecttolerance="10"
   gridtolerance="10"
   guidetolerance="10"
   inkscape:pageopacity="0"
   inkscape:pageshadow="2"
   inkscape:window-width="1927"
   inkscape:window-height="1223"
   id="namedview7"
   showgrid="false"
   inkscape:zoom="1.8601547"
   inkscape:cx="92.650971"
   inkscape:cy="114.06079"
   inkscape:window-x="0"
   inkscape:window-y="0"
   inkscape:window-maximized="0"
   inkscape:current-layer="Layer_1" />
<path
   fill="#ED225D"
   d="M58.197,108.205c-1.354-1.748-3.064-3.162-5.135-4.238c-2.07-1.074-4.496-1.611-7.281-1.611  c-2.627,0-4.977,0.557-7.045,1.672c-2.07,1.115-3.842,2.549-5.312,4.297c-1.475,1.752-2.588,3.742-3.344,5.971  c-0.758,2.229-1.133,4.459-1.133,6.686c0,2.229,0.375,4.438,1.133,6.625c0.756,2.191,1.869,4.16,3.344,5.912  c1.471,1.75,3.242,3.164,5.312,4.236c2.068,1.076,4.418,1.611,7.045,1.611c2.785,0,5.211-0.555,7.281-1.67s3.781-2.547,5.135-4.299  c1.352-1.75,2.367-3.74,3.045-5.969c0.676-2.229,1.014-4.457,1.014-6.686s-0.338-4.438-1.014-6.627  C60.564,111.927,59.549,109.957,58.197,108.205z"
   id="path2" />
<path
   fill="#ED225D"
   d="M0,0v191.06h191.063V0H0z M74.852,132.621c-1.312,3.701-3.184,6.924-5.611,9.67s-5.371,4.938-8.834,6.566  c-3.463,1.631-7.385,2.447-11.76,2.447c-4.061,0-7.781-0.836-11.164-2.506c-3.385-1.672-5.99-3.939-7.82-6.807h-0.238v36.295H15.098  V92.328h13.729v7.998h0.359c0.715-1.113,1.65-2.248,2.805-3.402s2.568-2.188,4.24-3.105c1.67-0.912,3.561-1.67,5.67-2.268  c2.107-0.596,4.477-0.896,7.104-0.896c4.059,0,7.799,0.777,11.223,2.328c3.422,1.555,6.367,3.684,8.836,6.389  c2.465,2.707,4.375,5.891,5.73,9.551c1.352,3.662,2.029,7.602,2.029,11.82S76.166,128.919,74.852,132.621z M136.422,134.531  c-1.633,3.701-3.842,6.826-6.627,9.371c-2.787,2.549-6.051,4.5-9.791,5.852s-7.721,2.029-11.938,2.029  c-7.086,0-13.057-1.654-17.91-4.955c-3.34-2.271-6.043-5.133-8.139-8.553l10.367-9.715l0.16-0.059  c1.193,3.344,3.182,6.029,5.969,8.059c2.785,2.029,6.09,3.045,9.91,3.045c2.148,0,4.178-0.357,6.088-1.076  c1.912-0.715,3.582-1.748,5.016-3.104c1.432-1.352,2.566-3.045,3.402-5.072c0.836-2.029,1.254-4.318,1.254-6.865  c0-3.264-0.559-5.971-1.672-8.119c-1.115-2.148-2.566-3.881-4.357-5.193s-3.803-2.229-6.029-2.746  c-2.229-0.518-4.498-0.775-6.805-0.775c-1.594,0-3.283,0.119-5.074,0.357c-1.791,0.24-3.543,0.578-5.254,1.016  c-1.713,0.438-3.383,0.936-5.014,1.49c-1.633,0.559-3.086,1.156-4.357,1.791l1.432-46.201h48.113V78h-34.504l-0.834,18.268  c1.352-0.398,2.963-0.676,4.834-0.838c1.871-0.156,3.562-0.238,5.074-0.238c4.139,0,7.979,0.598,11.521,1.791  c3.541,1.193,6.627,2.926,9.252,5.193c2.629,2.27,4.676,5.057,6.148,8.357c1.473,3.305,2.209,7.104,2.209,11.402  C138.867,126.632,138.051,130.83,136.422,134.531z M173.81,87.076l-5.243,3.802l-5.449-7.211l-5.312,7.026l-5.107-3.89l5.171-7.08  l-8.392-3.027l1.981-6.095l8.419,2.714v-8.708h6.754v8.721l8.357-2.522l1.979,6.09l-8.333,2.843L173.81,87.076z"
   id="path4" />
<g
   id="g1894"
   transform="matrix(0.71980062,0,0,0.71980062,-28.930754,-45.190642)"><path
     style="color:#000000;display:inline;overflow:visible;visibility:visible;opacity:1;fill:url(#linearGradient9521);fill-opacity:1;fill-rule:nonzero;stroke:none;stroke-width:1;stroke-linecap:butt;stroke-linejoin:miter;stroke-miterlimit:4;stroke-dasharray:none;stroke-dashoffset:0;stroke-opacity:1;marker:none;marker-start:none;marker-mid:none;marker-end:none"
     d="M 99.75,67.46875 C 71.718268,67.468752 73.46875,79.625 73.46875,79.625 L 73.5,92.21875 h 26.75 V 96 H 62.875 c 0,0 -17.9375,-2.034276 -17.9375,26.25 -2e-6,28.28427 15.65625,27.28125 15.65625,27.28125 h 9.34375 v -13.125 c 0,0 -0.503652,-15.65625 15.40625,-15.65625 15.9099,0 26.53125,0 26.53125,0 0,0 14.90625,0.24096 14.90625,-14.40625 0,-14.647206 0,-24.21875 0,-24.21875 0,-2e-6 2.26318,-14.65625 -27.03125,-14.65625 z M 85,75.9375 c 2.661429,-2e-6 4.8125,2.151071 4.8125,4.8125 2e-6,2.661429 -2.151071,4.8125 -4.8125,4.8125 -2.661429,2e-6 -4.8125,-2.151071 -4.8125,-4.8125 -2e-6,-2.661429 2.151071,-4.8125 4.8125,-4.8125 z"
     id="path8615" /><path
     id="path8620"
     d="m 100.5461,177.31485 c 28.03174,0 26.28125,-12.15625 26.28125,-12.15625 l -0.0312,-12.59375 h -26.75 v -3.78125 h 37.375 c 0,0 17.9375,2.03427 17.9375,-26.25001 10e-6,-28.284267 -15.65625,-27.281247 -15.65625,-27.281247 h -9.34375 v 13.124997 c 0,0 0.50366,15.65625 -15.40625,15.65625 -15.909902,0 -26.531252,0 -26.531252,0 0,0 -14.90625,-0.24096 -14.90625,14.40626 0,14.6472 0,24.21875 0,24.21875 0,0 -2.26318,14.65625 27.031252,14.65625 z m 14.75,-8.46875 c -2.66143,0 -4.8125,-2.15107 -4.8125,-4.8125 0,-2.66143 2.15107,-4.8125 4.8125,-4.8125 2.66143,0 4.8125,2.15107 4.8125,4.8125 1e-5,2.66143 -2.15107,4.8125 -4.8125,4.8125 z"
     style="color:#000000;display:inline;overflow:visible;visibility:visible;opacity:1;fill:url(#linearGradient11307);fill-opacity:1;fill-rule:nonzero;stroke:none;stroke-width:1;stroke-linecap:butt;stroke-linejoin:miter;stroke-miterlimit:4;stroke-dasharray:none;stroke-dashoffset:0;stroke-opacity:1;marker:none;marker-start:none;marker-mid:none;marker-end:none" /></g></svg>
